<svg xmlns="http://www.w3.org/2000/svg" xmlns:xlink="http://www.w3.org/1999/xlink"><symbol id="cart" viewBox="0 0 21 20"><g fill="none"><path fill-rule="evenodd" clip-rule="evenodd" d="M0.5 2C0.5 1.44772 0.947715 1 1.5 1H3.88919C4.30755 1 4.6817 1.26043 4.82697 1.65277L5.69608 4H19.5C19.8095 4 20.1016 4.14331 20.2909 4.38811C20.4803 4.6329 20.5457 4.95159 20.4679 5.25117L19.3931 9.39351C19.0498 10.7163 17.8559 11.64 16.4892 11.64H7.73613L7.97647 12.3293C8.11652 12.7309 8.49534 13 8.92071 13H16C16.5523 13 17 13.4477 17 14C17 14.5523 16.5523 15 16 15H8.92071C7.6446 15 6.50815 14.1927 6.08798 12.9878L5.38414 10.9693C5.3727 10.9364 5.36298 10.9031 5.35501 10.8693L4.04079 5.28934L3.19311 3H1.5C0.947715 3 0.5 2.55228 0.5 2ZM6.26289 6L7.12021 9.64H16.4892C16.9448 9.64 17.3427 9.33211 17.4572 8.89117L18.2074 6H6.26289ZM9.5 17.5C9.5 18.3284 8.82843 19 8 19C7.17157 19 6.5 18.3284 6.5 17.5C6.5 16.6716 7.17157 16 8 16C8.82843 16 9.5 16.6716 9.5 17.5ZM16 19C16.8284 19 17.5 18.3284 17.5 17.5C17.5 16.6716 16.8284 16 16 16C15.1716 16 14.5 16.6716 14.5 17.5C14.5 18.3284 15.1716 19 16 19Z" fill="black"/></g></symbol><symbol id="compare" viewBox="0 0 34 34"><g fill="none"><rect width="34" height="34" rx="17" fill="white"/><path d="M8.11011 20.7679L11.3552 10.6506L14.8659 20.7679" stroke="black" stroke-width="1.5" stroke-linejoin="round"/><path d="M19.1339 20.7679L22.3789 10.6506L25.8896 20.7679" stroke="black" stroke-width="1.5" stroke-linejoin="round"/><circle cx="17" cy="10.6506" r="1.5532" stroke="black" stroke-width="1.5"/><path d="M18.9136 10.5393H20.3994" stroke="black" stroke-width="1.5" stroke-linecap="round"/><path d="M13.6 10.5393H15.0858" stroke="black" stroke-width="1.5" stroke-linecap="round"/><path d="M11.4881 24.231C9.68302 24.231 8.17674 22.9515 7.82672 21.25H15.1496C14.7995 22.9515 13.2932 24.231 11.4881 24.231Z" stroke="black" stroke-width="1.5"/><path d="M22.5121 24.231C20.7069 24.231 19.2007 22.9515 18.8506 21.25H26.1735C25.8235 22.9515 24.3172 24.231 22.5121 24.231Z" stroke="black" stroke-width="1.5"/></g></symbol><symbol id="faivorite" viewBox="0 0 34 34"><g fill="none"><rect width="34" height="34" rx="17" fill="white"/><path d="M17 25C13.4058 23.4602 8.51375 19.0571 8.01457 14.0045C7.7873 11.7041 10.2609 9.00002 12.5073 9.00001C14.612 9.00001 16.1014 10.1549 17 12.0797C17.8985 10.1549 19.388 8.99999 21.4927 9C23.7391 9.00001 26.2127 11.7041 25.9854 14.0045C25.4862 19.0571 20.5942 23.4602 17 25Z" stroke="black" stroke-width="2"/></g></symbol></svg>